<svg xmlns="http://www.w3.org/2000/svg" xmlns:xlink="http://www.w3.org/1999/xlink" width="480" zoomAndPan="magnify" viewBox="0 0 360 143.999998" height="192" preserveAspectRatio="xMidYMid meet" version="1.0"><defs><clipPath id="38901c6d8a"><path d="M 0 9.601562 L 360 9.601562 L 360 134.101562 L 0 134.101562 Z M 0 9.601562 " clip-rule="nonzero"/></clipPath><clipPath id="a1b1ab511a"><path d="M 0 0.601562 L 360 0.601562 L 360 125.101562 L 0 125.101562 Z M 0 0.601562 " clip-rule="nonzero"/></clipPath><clipPath id="046f66660f"><rect x="0" width="360" y="0" height="126"/></clipPath></defs><rect x="-36" width="432" fill="#ffffff" y="-14.4" height="172.799997" fill-opacity="1"/><rect x="-36" width="432" fill="#ffffff" y="-14.4" height="172.799997" fill-opacity="1"/><g clip-path="url(#38901c6d8a)"><g transform="matrix(1, 0, 0, 1, 0, 9)"><g clip-path="url(#046f66660f)"><g clip-path="url(#a1b1ab511a)"><path fill="#000000" d="M 305.84375 125.058594 C 307.015625 125.058594 308.21875 125.03125 309.453125 124.976562 C 315.089844 124.722656 320.195312 123.863281 324.621094 122.425781 C 330.117188 120.640625 334.59375 117.945312 337.929688 114.417969 C 339.78125 112.457031 343.117188 108.253906 344.636719 102.121094 C 345.707031 97.785156 344.820312 91.839844 342.421875 87.328125 C 340.410156 83.546875 335.710938 76.949219 332.660156 72.761719 C 332.394531 71.410156 331.949219 70.066406 331.355469 68.875 C 330.867188 67.90625 330.269531 67.34375 329.703125 67.339844 C 329.425781 67.339844 329.195312 67.472656 329.066406 67.714844 C 328.855469 68.113281 328.976562 68.699219 329.390625 69.28125 C 329.550781 69.503906 329.882812 69.957031 330.34375 70.582031 C 330.808594 71.214844 331.414062 72.039062 332.113281 72.996094 C 332.238281 73.675781 332.316406 74.355469 332.339844 75.015625 C 332.410156 76.980469 331.972656 78.496094 331.136719 79.179688 C 330.078125 80.046875 327.328125 79.808594 320.214844 73.765625 C 315.460938 69.722656 310.609375 65.113281 310.695312 61.574219 C 310.710938 60.832031 310.949219 60.175781 311.40625 59.582031 C 312.652344 59.632812 313.714844 59.5625 314.480469 59.472656 C 317.039062 59.179688 319.226562 58.382812 319.570312 57.617188 C 319.6875 57.355469 319.648438 56.996094 319.175781 56.777344 C 317.136719 55.839844 312.175781 58.144531 311.96875 58.242188 C 311.949219 58.253906 311.929688 58.261719 311.914062 58.277344 C 311.621094 58.5 311.363281 58.738281 311.144531 58.988281 C 309.273438 58.878906 307.269531 58.488281 305.347656 57.644531 C 300.378906 55.472656 297.601562 52.5625 295.570312 50.441406 C 294.628906 49.457031 293.882812 48.675781 293.152344 48.214844 C 292.597656 47.863281 291.898438 47.441406 291.085938 46.949219 C 288.75 45.535156 285.546875 43.597656 283.9375 42.210938 C 281.898438 40.457031 277.257812 35.019531 277.910156 32.890625 C 278.0625 32.386719 278.519531 32.101562 279.304688 32.007812 C 281.871094 31.699219 286.191406 32.460938 290.867188 34.039062 C 294.707031 35.335938 300.546875 37.765625 306.550781 41.976562 C 310.457031 44.714844 314.714844 47.964844 319.367188 53.144531 C 320.460938 54.367188 321.792969 56.105469 323.332031 58.117188 C 325.257812 60.632812 327.433594 63.480469 329.710938 66.03125 C 329.871094 66.207031 330.089844 66.46875 330.367188 66.800781 C 331.417969 68.066406 333.179688 70.179688 335.355469 72.105469 C 336.164062 72.824219 337.722656 72.921875 337.789062 72.925781 C 337.921875 72.9375 338.042969 72.855469 338.082031 72.730469 C 338.953125 70.125 334.648438 63.484375 332.007812 59.757812 C 329.242188 55.855469 325.964844 51.859375 323.925781 49.828125 C 323.925781 49.371094 323.886719 48.875 323.804688 48.339844 C 323.78125 48.019531 323.097656 38.445312 324.988281 27.972656 C 326.734375 18.316406 331.097656 5.902344 341.96875 1.582031 C 342.101562 1.554688 343.09375 1.371094 344.210938 2.246094 C 345.773438 3.472656 347.613281 6.808594 347.503906 15.738281 C 347.503906 15.746094 347.503906 15.753906 347.503906 15.765625 C 347.511719 15.875 347.734375 18.472656 349.867188 20.800781 C 351.84375 22.957031 352.820312 27.300781 351.808594 29.40625 C 350.671875 31.773438 346.457031 37.09375 342.097656 41.675781 C 340.09375 42.671875 338.40625 43.761719 337.296875 44.535156 C 334.570312 46.441406 332.238281 48.597656 331.988281 49.445312 C 331.914062 49.707031 332.015625 49.855469 332.082031 49.921875 C 332.269531 50.109375 332.554688 50.050781 332.75 49.992188 C 335.429688 49.179688 339.839844 44.890625 342.46875 42.140625 C 344.203125 41.285156 346.15625 40.511719 348.160156 40.085938 C 351.023438 39.476562 353.179688 41.390625 354.484375 43.105469 C 358.230469 48.03125 360.011719 58.113281 356.792969 64.238281 C 355.082031 67.492188 352.792969 69.570312 349.988281 70.414062 C 345.894531 71.644531 341.808594 69.921875 339.742188 68.789062 L 339.632812 68.730469 C 338.910156 68.332031 338.289062 67.992188 337.980469 67.75 C 337.851562 67.648438 337.667969 67.671875 337.570312 67.796875 C 337.46875 67.921875 337.492188 68.105469 337.617188 68.207031 C 337.964844 68.480469 338.578125 68.816406 339.351562 69.238281 L 339.460938 69.296875 C 341.609375 70.476562 345.855469 72.261719 350.15625 70.972656 C 353.117188 70.082031 355.523438 67.90625 357.308594 64.507812 C 358.832031 61.617188 359.375 57.636719 358.84375 53.308594 C 358.339844 49.191406 356.921875 45.34375 354.949219 42.753906 C 352.933594 40.101562 350.542969 38.980469 348.039062 39.515625 C 346.480469 39.847656 344.957031 40.382812 343.539062 41 C 343.582031 40.957031 343.621094 40.914062 343.660156 40.871094 C 347.648438 36.539062 351.296875 31.824219 352.335938 29.660156 C 353.453125 27.335938 352.445312 22.753906 350.300781 20.40625 C 348.378906 18.308594 348.105469 15.917969 348.089844 15.730469 C 348.199219 6.546875 346.226562 3.070312 344.550781 1.773438 C 343.144531 0.679688 341.855469 1.007812 341.800781 1.023438 C 341.792969 1.027344 341.78125 1.03125 341.769531 1.035156 C 336.835938 2.988281 332.789062 6.707031 329.746094 12.085938 C 327.320312 16.367188 325.519531 21.707031 324.398438 27.953125 C 322.484375 38.628906 323.214844 48.339844 323.226562 48.414062 C 323.269531 48.707031 323.300781 48.984375 323.320312 49.25 C 323.046875 49.003906 322.808594 48.808594 322.609375 48.675781 C 321.171875 47.707031 320.253906 48.003906 319.921875 48.179688 C 319.894531 48.195312 319.859375 48.210938 319.828125 48.238281 C 319.226562 48.546875 318.855469 48.972656 318.730469 49.507812 C 318.546875 50.289062 318.894531 51.261719 319.796875 52.46875 C 320.210938 53.027344 320.878906 53.355469 321.574219 53.34375 C 322.257812 53.332031 322.875 53.007812 323.257812 52.457031 C 323.59375 51.976562 323.800781 51.363281 323.886719 50.625 C 325.800781 52.613281 328.769531 56.195312 331.53125 60.09375 C 335.742188 66.03125 337.921875 70.449219 337.585938 72.320312 C 337.152344 72.269531 336.238281 72.105469 335.742188 71.671875 C 333.601562 69.773438 331.859375 67.679688 330.816406 66.429688 C 330.535156 66.09375 330.3125 65.828125 330.148438 65.640625 C 327.886719 63.105469 325.714844 60.269531 323.796875 57.765625 C 322.25 55.742188 320.914062 53.992188 319.800781 52.757812 C 315.109375 47.53125 310.824219 44.257812 306.886719 41.5 C 300.824219 37.246094 294.929688 34.792969 291.054688 33.484375 C 286.300781 31.882812 281.882812 31.113281 279.234375 31.425781 C 278.210938 31.550781 277.574219 31.984375 277.351562 32.71875 C 276.515625 35.449219 282.003906 41.320312 283.554688 42.652344 C 285.203125 44.070312 288.296875 45.941406 290.785156 47.449219 C 291.589844 47.9375 292.289062 48.359375 292.839844 48.707031 C 293.511719 49.132812 294.234375 49.886719 295.148438 50.84375 C 297.210938 53.003906 300.039062 55.957031 305.109375 58.179688 C 307.070312 59.035156 309.03125 59.410156 310.726562 59.539062 C 310.335938 60.152344 310.128906 60.828125 310.109375 61.5625 C 310.019531 65.347656 314.976562 70.078125 319.835938 74.207031 C 324.503906 78.175781 327.847656 80.136719 329.960938 80.136719 C 330.582031 80.136719 331.097656 79.96875 331.507812 79.628906 C 332.496094 78.820312 333 77.171875 332.921875 74.992188 C 332.914062 74.671875 332.886719 74.347656 332.851562 74.019531 C 335.875 78.191406 340.050781 84.117188 341.90625 87.601562 C 344.242188 91.996094 345.109375 97.773438 344.066406 101.980469 C 342.582031 107.984375 339.316406 112.101562 337.503906 114.019531 C 331.535156 120.332031 322.089844 123.824219 309.425781 124.394531 C 299.296875 124.851562 290.921875 123.195312 290.570312 123.125 C 279.503906 120.898438 271.066406 117.492188 265.3125 112.941406 C 265.332031 112.925781 265.347656 112.910156 265.367188 112.894531 C 268.695312 110.082031 271.109375 106.851562 272.535156 103.289062 C 276.34375 93.792969 273.988281 87.210938 270.511719 84.214844 C 269.246094 83.125 267.773438 82.441406 266.253906 82.238281 C 264.707031 82.03125 263.1875 82.332031 261.851562 83.109375 C 258.960938 84.785156 256.992188 87.710938 256.160156 91.566406 C 255.449219 94.84375 255.699219 98.160156 256.167969 100.171875 C 257.308594 105.070312 260.070312 109.347656 264.402344 112.949219 C 261.808594 115.03125 258.675781 116.875 255.015625 118.476562 C 246.859375 122.039062 239.304688 122.941406 238.46875 123.03125 C 231.917969 123.75 226.925781 123.792969 222.75 123.175781 C 209.628906 121.230469 199.078125 114.582031 188.878906 108.15625 C 180.511719 102.882812 171.859375 97.433594 162.042969 94.859375 C 152.53125 92.371094 143.835938 91.933594 136.191406 93.566406 C 130.136719 94.859375 124.878906 97.445312 120.476562 101.285156 C 119.257812 99.460938 117.769531 97.929688 115.992188 96.667969 C 112.757812 94.367188 108.632812 93.007812 103.378906 92.511719 C 93.640625 91.59375 81.609375 93.789062 68.867188 96.117188 C 54.902344 98.667969 40.457031 101.304688 28.164062 99.90625 C 14.3125 98.328125 5.304688 91.671875 0.625 79.558594 C 0.566406 79.410156 0.398438 79.335938 0.246094 79.390625 C 0.0976562 79.449219 0.0195312 79.617188 0.078125 79.769531 C 1.371094 83.117188 3.011719 86.09375 4.953125 88.617188 C 6.800781 91.019531 8.980469 93.089844 11.433594 94.769531 C 15.929688 97.847656 21.382812 99.71875 28.097656 100.484375 C 40.476562 101.894531 54.964844 99.25 68.972656 96.691406 C 81.671875 94.371094 93.664062 92.179688 103.324219 93.089844 C 111.25 93.839844 116.699219 96.605469 120.039062 101.675781 C 117.960938 103.554688 116.078125 105.722656 114.398438 108.171875 C 112.148438 111.457031 110.941406 114.464844 110.820312 117.101562 C 110.695312 119.742188 111.648438 121.894531 113.648438 123.5 C 115.101562 124.667969 118.023438 125.007812 120.578125 123.339844 C 122.277344 122.226562 123.476562 120.417969 124.042969 118.109375 C 124.726562 115.339844 124.515625 111.910156 123.414062 107.914062 C 122.773438 105.597656 121.910156 103.5625 120.804688 101.792969 C 133.75 90.488281 151.542969 92.714844 161.894531 95.425781 C 171.625 97.972656 179.855469 103.160156 188.566406 108.648438 C 198.816406 115.109375 209.417969 121.789062 222.664062 123.75 C 226.890625 124.378906 231.933594 124.332031 238.53125 123.613281 C 239.375 123.519531 247.015625 122.605469 255.25 119.007812 C 258.960938 117.386719 262.1875 115.476562 264.851562 113.320312 C 266.933594 114.988281 269.363281 116.507812 272.132812 117.875 C 279.441406 121.480469 287.160156 123.035156 290.457031 123.695312 C 290.769531 123.761719 297.328125 125.058594 305.84375 125.058594 Z M 120.363281 102.183594 C 121.414062 103.894531 122.238281 105.851562 122.847656 108.070312 C 123.925781 111.96875 124.136719 115.300781 123.476562 117.96875 C 122.945312 120.132812 121.828125 121.820312 120.253906 122.851562 C 117.9375 124.371094 115.308594 124.085938 114.015625 123.046875 C 110.230469 120.003906 110.539062 114.839844 114.882812 108.5 C 116.5625 106.046875 118.40625 103.953125 120.363281 102.183594 Z M 265.320312 82.75 C 266.980469 82.75 268.667969 83.398438 270.128906 84.65625 C 273.453125 87.519531 275.6875 93.859375 271.996094 103.070312 C 270.570312 106.628906 268.179688 109.804688 264.859375 112.574219 C 260.578125 109.054688 257.863281 104.871094 256.738281 100.039062 C 255.976562 96.78125 255.46875 87.484375 262.144531 83.613281 C 263.136719 83.035156 264.222656 82.75 265.320312 82.75 Z M 329.695312 67.921875 C 329.695312 67.921875 329.699219 67.921875 329.699219 67.921875 C 329.894531 67.921875 330.355469 68.183594 330.832031 69.136719 C 331.203125 69.882812 331.515625 70.695312 331.761719 71.527344 C 331.402344 71.039062 331.085938 70.605469 330.8125 70.238281 C 330.355469 69.613281 330.023438 69.164062 329.867188 68.941406 C 329.558594 68.507812 329.503906 68.140625 329.585938 67.984375 C 329.609375 67.941406 329.640625 67.921875 329.695312 67.921875 Z M 319.039062 57.375 C 319.019531 57.417969 318.925781 57.574219 318.488281 57.8125 C 317.332031 58.441406 314.851562 59.0625 311.933594 59.015625 C 312.03125 58.929688 312.136719 58.84375 312.246094 58.757812 C 313.632812 58.109375 317.453125 56.628906 318.929688 57.308594 C 318.992188 57.335938 319.023438 57.359375 319.039062 57.375 Z M 323.339844 50.074219 C 323.3125 50.9375 323.125 51.625 322.777344 52.121094 C 322.503906 52.519531 322.058594 52.753906 321.566406 52.761719 C 321.054688 52.769531 320.570312 52.53125 320.265625 52.121094 C 319.484375 51.074219 319.15625 50.238281 319.300781 49.640625 C 319.386719 49.269531 319.652344 48.976562 320.113281 48.746094 C 320.128906 48.738281 320.144531 48.730469 320.15625 48.71875 C 320.195312 48.691406 320.894531 48.222656 322.28125 49.160156 C 322.542969 49.335938 322.902344 49.648438 323.339844 50.074219 Z M 332.417969 49.464844 Z M 340.773438 43.039062 C 337.617188 46.214844 334.535156 48.804688 332.640625 49.414062 C 333.046875 48.761719 334.71875 47.066406 337.480469 45.121094 C 338.296875 44.542969 339.429688 43.792969 340.773438 43.039062 Z M 340.773438 43.039062 " fill-opacity="1" fill-rule="nonzero"/></g></g></g></g></svg>