<svg xmlns="http://www.w3.org/2000/svg" xmlns:xlink="http://www.w3.org/1999/xlink" width="500" zoomAndPan="magnify" viewBox="0 0 375 374.999991" height="500" preserveAspectRatio="xMidYMid meet" version="1.0"><defs><clipPath id="b2cb8bbd61"><path d="M 24.125 83.101562 L 292.625 83.101562 L 292.625 370.351562 L 24.125 370.351562 Z M 24.125 83.101562 " clip-rule="nonzero"/></clipPath><clipPath id="7696517a48"><path d="M 310 118 L 331 118 L 331 139 L 310 139 Z M 310 118 " clip-rule="nonzero"/></clipPath><clipPath id="7ca67ec648"><path d="M 308.804688 125.195312 L 327.195312 116.714844 L 335.675781 135.105469 L 317.285156 143.585938 Z M 308.804688 125.195312 " clip-rule="nonzero"/></clipPath><clipPath id="284b956834"><path d="M 308.804688 125.195312 L 327.195312 116.714844 L 335.675781 135.105469 L 317.285156 143.585938 Z M 308.804688 125.195312 " clip-rule="nonzero"/></clipPath><clipPath id="3900cf13b0"><path d="M 308.804688 125.195312 L 327.195312 116.714844 L 335.675781 135.105469 L 317.285156 143.585938 Z M 308.804688 125.195312 " clip-rule="nonzero"/></clipPath><clipPath id="f4a7dc809c"><path d="M 200 36 L 221 36 L 221 56 L 200 56 Z M 200 36 " clip-rule="nonzero"/></clipPath><clipPath id="b9d6fd5c68"><path d="M 202.648438 34.484375 L 221.707031 41.332031 L 214.859375 60.390625 L 195.800781 53.542969 Z M 202.648438 34.484375 " clip-rule="nonzero"/></clipPath><clipPath id="192a44409f"><path d="M 202.648438 34.484375 L 221.707031 41.332031 L 214.859375 60.390625 L 195.800781 53.542969 Z M 202.648438 34.484375 " clip-rule="nonzero"/></clipPath><clipPath id="35f3e01768"><path d="M 202.648438 34.484375 L 221.707031 41.332031 L 214.859375 60.390625 L 195.800781 53.542969 Z M 202.648438 34.484375 " clip-rule="nonzero"/></clipPath><clipPath id="020077c92c"><path d="M 269 66 L 289 66 L 289 85 L 269 85 Z M 269 66 " clip-rule="nonzero"/></clipPath><clipPath id="3964c65b53"><path d="M 268.679688 67.296875 L 288.867188 65.71875 L 290.445312 85.90625 L 270.253906 87.484375 Z M 268.679688 67.296875 " clip-rule="nonzero"/></clipPath><clipPath id="38f6dd6d9e"><path d="M 268.679688 67.296875 L 288.867188 65.71875 L 290.445312 85.90625 L 270.253906 87.484375 Z M 268.679688 67.296875 " clip-rule="nonzero"/></clipPath><clipPath id="744f162b19"><path d="M 268.679688 67.296875 L 288.867188 65.71875 L 290.445312 85.90625 L 270.253906 87.484375 Z M 268.679688 67.296875 " clip-rule="nonzero"/></clipPath><clipPath id="986d0b61e2"><path d="M 335 62 L 356 62 L 356 83 L 335 83 Z M 335 62 " clip-rule="nonzero"/></clipPath><clipPath id="6f74ddae0d"><path d="M 338.339844 61.007812 L 356.988281 68.894531 L 349.101562 87.546875 L 330.449219 79.65625 Z M 338.339844 61.007812 " clip-rule="nonzero"/></clipPath><clipPath id="7d76409be5"><path d="M 338.339844 61.007812 L 356.988281 68.894531 L 349.101562 87.546875 L 330.449219 79.65625 Z M 338.339844 61.007812 " clip-rule="nonzero"/></clipPath><clipPath id="afed77ab09"><path d="M 338.339844 61.007812 L 356.988281 68.894531 L 349.101562 87.546875 L 330.449219 79.65625 Z M 338.339844 61.007812 " clip-rule="nonzero"/></clipPath><clipPath id="eaa3922c08"><path d="M 252 6 L 275 6 L 275 28 L 252 28 Z M 252 6 " clip-rule="nonzero"/></clipPath><clipPath id="cc00a71f67"><path d="M 251.234375 17.53125 L 266.894531 4.695312 L 279.734375 20.355469 L 264.074219 33.191406 Z M 251.234375 17.53125 " clip-rule="nonzero"/></clipPath><clipPath id="fefa7ce076"><path d="M 251.234375 17.53125 L 266.894531 4.695312 L 279.734375 20.355469 L 264.074219 33.191406 Z M 251.234375 17.53125 " clip-rule="nonzero"/></clipPath><clipPath id="25c56b67f6"><path d="M 251.234375 17.53125 L 266.894531 4.695312 L 279.734375 20.355469 L 264.074219 33.191406 Z M 251.234375 17.53125 " clip-rule="nonzero"/></clipPath><clipPath id="3e49efd396"><path d="M 310 5 L 330 5 L 330 24 L 310 24 Z M 310 5 " clip-rule="nonzero"/></clipPath><clipPath id="47a4a80327"><path d="M 310.539062 4.820312 L 330.726562 6.410156 L 329.132812 26.597656 L 308.945312 25.007812 Z M 310.539062 4.820312 " clip-rule="nonzero"/></clipPath><clipPath id="075d187a4e"><path d="M 310.539062 4.820312 L 330.726562 6.410156 L 329.132812 26.597656 L 308.945312 25.007812 Z M 310.539062 4.820312 " clip-rule="nonzero"/></clipPath><clipPath id="3ccc280671"><path d="M 310.539062 4.820312 L 330.726562 6.410156 L 329.132812 26.597656 L 308.945312 25.007812 Z M 310.539062 4.820312 " clip-rule="nonzero"/></clipPath></defs><rect x="-37.5" width="450" fill="#ffffff" y="-37.499999" height="449.999989" fill-opacity="1"/><rect x="-37.5" width="450" fill="#ffffff" y="-37.499999" height="449.999989" fill-opacity="1"/><path fill="#eaebec" d="M 276.132812 350.792969 L 276.132812 250.460938 L 283.28125 250.460938 L 283.28125 223.878906 L 260.023438 223.878906 C 260.023438 223.878906 260.023438 216.789062 257.996094 206.460938 L 270.308594 203.496094 C 266.691406 183.34375 257.769531 165.015625 245.023438 150.058594 L 260.066406 133.644531 L 259.65625 133.257812 C 264.300781 137.519531 271.492188 137.199219 275.746094 132.574219 L 281.460938 126.347656 L 236.945312 85.382812 L 230.800781 92.0625 C 226.796875 96.460938 227.070312 103.277344 231.460938 107.3125 L 231.507812 107.335938 L 215.1875 125.140625 C 198.484375 115.476562 179.074219 109.933594 158.386719 109.933594 C 119.242188 109.933594 84.695312 129.746094 64.238281 159.929688 L 64.257812 159.929688 L 74.203125 167.386719 C 66.375 179.285156 62.074219 191.847656 59.683594 202.105469 C 56.75 214.757812 56.75 223.878906 56.75 223.878906 L 33.492188 223.878906 L 33.492188 250.460938 L 40.636719 250.460938 L 40.636719 350.792969 L 26.707031 350.792969 L 26.707031 368.070312 L 290.0625 368.070312 L 290.0625 350.792969 Z M 276.132812 350.792969 " fill-opacity="1" fill-rule="nonzero"/><path fill="#8bcb8f" d="M 158.386719 278.136719 L 158.386719 350.792969 L 124.976562 350.792969 L 124.976562 311.398438 C 124.976562 293.046875 139.839844 278.136719 158.179688 278.136719 Z M 158.386719 278.136719 " fill-opacity="1" fill-rule="nonzero"/><path fill="#5cc096" d="M 191.792969 311.398438 L 191.792969 350.792969 L 158.386719 350.792969 L 158.386719 278.136719 L 158.589844 278.136719 C 176.933594 278.136719 191.792969 293.046875 191.792969 311.398438 Z M 191.792969 311.398438 " fill-opacity="1" fill-rule="nonzero"/><path fill="#2f84b9" d="M 71.109375 288.210938 L 97.441406 288.210938 L 97.441406 314.589844 L 71.109375 314.589844 Z M 71.109375 288.210938 " fill-opacity="1" fill-rule="nonzero"/><path fill="#2f84b9" d="M 219.332031 288.210938 L 245.660156 288.210938 L 245.660156 314.589844 L 219.332031 314.589844 Z M 219.332031 288.210938 " fill-opacity="1" fill-rule="nonzero"/><path fill="#5cc096" d="M 26.707031 350.792969 L 290.0625 350.792969 L 290.0625 368.070312 L 26.707031 368.070312 Z M 26.707031 350.792969 " fill-opacity="1" fill-rule="nonzero"/><path fill="#5cc096" d="M 33.492188 223.878906 L 283.28125 223.878906 L 283.28125 250.460938 L 33.492188 250.460938 Z M 33.492188 223.878906 " fill-opacity="1" fill-rule="nonzero"/><path fill="#8bcb8f" d="M 59.707031 202.105469 L 97.460938 202.105469 C 95.390625 209.011719 93.617188 216.261719 92.070312 223.878906 L 56.75 223.878906 C 56.75 223.878906 56.75 214.757812 59.683594 202.105469 Z M 59.707031 202.105469 " fill-opacity="1" fill-rule="nonzero"/><path fill="#8bcb8f" d="M 260.023438 223.878906 L 224.703125 223.878906 C 223.15625 216.261719 221.378906 209.011719 219.308594 202.105469 L 256.175781 202.105469 L 257.039062 201.902344 C 257.40625 203.472656 257.722656 205 257.996094 206.460938 C 260.023438 216.789062 260.023438 223.878906 260.023438 223.878906 Z M 260.023438 223.878906 " fill-opacity="1" fill-rule="nonzero"/><path fill="#319f9f" d="M 224.703125 223.878906 L 92.070312 223.878906 C 93.617188 216.261719 95.390625 209.011719 97.460938 202.105469 L 219.308594 202.105469 C 221.378906 209.011719 223.15625 216.261719 224.703125 223.878906 Z M 224.703125 223.878906 " fill-opacity="1" fill-rule="nonzero"/><path fill="#d2d2d1" d="M 158.386719 127.03125 C 192.113281 143.3125 209.273438 168.523438 219.308594 202.105469 L 97.460938 202.105469 C 107.5 168.523438 124.660156 143.3125 158.386719 127.03125 Z M 158.386719 127.03125 " fill-opacity="1" fill-rule="nonzero"/><path fill="#8bcb8f" d="M 270.308594 203.496094 L 257.996094 206.460938 C 257.722656 205 257.40625 203.472656 257.039062 201.902344 C 250.351562 173.335938 228.660156 127.03125 158.386719 127.03125 C 113.234375 127.03125 88.132812 146.136719 74.203125 167.386719 L 64.257812 159.929688 L 64.238281 159.929688 C 84.695312 129.746094 119.242188 109.933594 158.386719 109.933594 C 179.074219 109.933594 198.484375 115.476562 215.1875 125.140625 C 226.523438 131.707031 236.605469 140.140625 245.023438 150.058594 C 257.769531 165.015625 266.691406 183.34375 270.308594 203.496094 Z M 270.308594 203.496094 " fill-opacity="1" fill-rule="nonzero"/><path fill="#8bcb8f" d="M 281.460938 126.347656 L 275.746094 132.574219 C 271.492188 137.199219 264.300781 137.519531 259.65625 133.257812 L 231.507812 107.335938 L 231.460938 107.3125 C 227.070312 103.277344 226.796875 96.460938 230.800781 92.0625 L 236.945312 85.382812 Z M 281.460938 126.347656 " fill-opacity="1" fill-rule="nonzero"/><path fill="#5cc096" d="M 260.066406 133.644531 L 245.023438 150.058594 C 236.605469 140.140625 226.523438 131.707031 215.1875 125.140625 L 231.507812 107.335938 L 259.65625 133.257812 Z M 260.066406 133.644531 " fill-opacity="1" fill-rule="nonzero"/><g clip-path="url(#b2cb8bbd61)"><path fill="#3a322b" d="M 290.050781 348.503906 L 278.402344 348.503906 L 278.402344 252.75 L 283.292969 252.75 C 284.546875 252.75 285.566406 251.726562 285.566406 250.46875 L 285.566406 223.867188 C 285.566406 222.609375 284.546875 221.589844 283.292969 221.589844 L 262.203125 221.589844 C 262.050781 218.960938 261.640625 214.226562 260.542969 208.195312 L 270.835938 205.714844 C 270.96875 205.683594 271.070312 205.605469 271.1875 205.550781 C 271.328125 205.492188 271.472656 205.449219 271.597656 205.363281 C 271.71875 205.277344 271.8125 205.164062 271.914062 205.054688 C 272.011719 204.953125 272.121094 204.863281 272.199219 204.742188 C 272.28125 204.617188 272.324219 204.472656 272.378906 204.335938 C 272.429688 204.203125 272.496094 204.078125 272.523438 203.9375 C 272.554688 203.785156 272.535156 203.628906 272.535156 203.476562 C 272.535156 203.347656 272.566406 203.226562 272.542969 203.09375 C 268.925781 183.027344 260.28125 164.976562 248.074219 150.09375 L 260.429688 136.621094 C 262.515625 137.863281 264.886719 138.542969 267.351562 138.542969 C 267.546875 138.542969 267.75 138.539062 267.945312 138.53125 C 271.59375 138.375 274.960938 136.804688 277.433594 134.113281 L 283.136719 127.890625 C 283.546875 127.445312 283.761719 126.855469 283.734375 126.25 C 283.710938 125.648438 283.445312 125.078125 283 124.667969 L 238.480469 83.703125 C 238.035156 83.292969 237.445312 83.082031 236.84375 83.101562 C 236.238281 83.128906 235.671875 83.390625 235.265625 83.839844 L 229.128906 90.527344 C 226.773438 93.097656 225.558594 96.429688 225.707031 99.914062 C 225.824219 102.648438 226.792969 105.203125 228.433594 107.320312 L 214.734375 122.265625 C 197.960938 112.9375 178.71875 107.660156 158.386719 107.660156 C 119.914062 107.660156 84.019531 126.714844 62.367188 158.640625 C 62.273438 158.777344 62.242188 158.933594 62.183594 159.082031 C 62.136719 159.195312 62.070312 159.300781 62.042969 159.417969 C 62.003906 159.589844 62.015625 159.757812 62.015625 159.925781 C 62.015625 160.046875 61.996094 160.167969 62.015625 160.289062 C 62.039062 160.449219 62.113281 160.589844 62.171875 160.742188 C 62.21875 160.863281 62.25 160.992188 62.316406 161.109375 C 62.398438 161.242188 62.523438 161.34375 62.628906 161.460938 C 62.71875 161.554688 62.78125 161.667969 62.886719 161.75 L 71.3125 168.070312 C 64.246094 179.402344 60.140625 191.175781 57.761719 200.976562 C 57.5625 201.3125 57.421875 201.683594 57.421875 202.101562 C 57.421875 202.160156 57.449219 202.207031 57.453125 202.265625 C 55.410156 211.09375 54.765625 218.152344 54.566406 221.589844 L 33.480469 221.589844 C 32.222656 221.589844 31.203125 222.613281 31.203125 223.871094 L 31.203125 250.472656 C 31.203125 251.730469 32.222656 252.75 33.480469 252.75 L 38.371094 252.75 L 38.371094 348.507812 L 26.71875 348.507812 C 25.464844 348.507812 24.445312 349.527344 24.445312 350.785156 L 24.445312 368.070312 C 24.445312 369.332031 25.464844 370.351562 26.71875 370.351562 L 290.050781 370.351562 C 291.308594 370.351562 292.328125 369.332031 292.328125 368.070312 L 292.328125 350.785156 C 292.328125 349.527344 291.308594 348.503906 290.050781 348.503906 Z M 148.640625 129.664062 C 122.898438 144.5625 106.289062 166.53125 95.875 199.820312 L 62.605469 199.820312 C 64.449219 192.664062 67.242188 184.574219 71.472656 176.511719 C 86.578125 147.730469 112.527344 132.023438 148.640625 129.664062 Z M 158.386719 129.578125 C 187.441406 143.882812 205.179688 165.054688 216.203125 199.820312 L 100.566406 199.820312 C 111.589844 165.058594 129.332031 143.882812 158.386719 129.578125 Z M 168.128906 129.664062 C 204.175781 132.019531 230.101562 147.675781 245.21875 176.363281 C 249.488281 184.46875 252.300781 192.613281 254.15625 199.820312 L 220.894531 199.820312 C 210.484375 166.53125 193.875 144.5625 168.128906 129.664062 Z M 217.585938 204.378906 C 219.164062 209.796875 220.589844 215.523438 221.882812 221.589844 L 94.886719 221.589844 C 96.179688 215.523438 97.609375 209.792969 99.183594 204.378906 Z M 226.519531 221.589844 C 225.253906 215.558594 223.851562 209.816406 222.289062 204.378906 L 255.234375 204.378906 C 256.921875 212.175781 257.476562 218.417969 257.65625 221.589844 Z M 232.484375 93.613281 L 237.078125 88.601562 L 278.25 126.484375 L 274.082031 131.027344 C 272.433594 132.824219 270.1875 133.871094 267.753906 133.972656 C 265.3125 134.0625 262.996094 133.222656 261.199219 131.574219 L 249.882812 121.164062 L 232.992188 105.621094 C 231.324219 104.085938 230.351562 101.988281 230.253906 99.722656 C 230.160156 97.457031 230.953125 95.28125 232.484375 93.613281 Z M 231.636719 110.570312 L 256.859375 133.777344 L 245.09375 146.609375 C 237.457031 138.015625 228.578125 130.597656 218.761719 124.613281 Z M 67.402344 159.441406 C 88.320312 129.851562 122.148438 112.21875 158.386719 112.21875 C 191.996094 112.21875 222.558594 127.175781 243.148438 151.28125 C 243.25 151.4375 243.335938 151.605469 243.480469 151.738281 C 243.519531 151.769531 243.5625 151.78125 243.601562 151.8125 C 255.40625 165.804688 263.847656 182.84375 267.636719 201.796875 L 259.644531 203.722656 C 253.292969 174.742188 231.710938 124.75 158.386719 124.75 C 113.796875 124.75 88.347656 143.238281 73.816406 164.246094 Z M 61.53125 204.378906 L 94.484375 204.378906 C 92.921875 209.816406 91.519531 215.558594 90.253906 221.589844 L 59.117188 221.589844 C 59.292969 218.421875 59.84375 212.179688 61.53125 204.378906 Z M 35.753906 226.148438 L 281.015625 226.148438 L 281.015625 248.1875 L 35.753906 248.1875 Z M 42.921875 252.75 L 273.851562 252.75 L 273.851562 348.503906 L 194.070312 348.503906 L 194.070312 311.40625 C 194.070312 291.808594 178.152344 275.863281 158.589844 275.863281 L 158.183594 275.863281 C 138.617188 275.863281 122.703125 291.808594 122.703125 311.40625 L 122.703125 348.503906 L 42.921875 348.503906 Z M 156.109375 348.503906 L 127.253906 348.503906 L 127.253906 311.40625 C 127.253906 295.023438 140.023438 281.605469 156.109375 280.527344 Z M 160.660156 280.53125 C 176.75 281.605469 189.519531 295.023438 189.519531 311.410156 L 189.519531 348.507812 L 160.660156 348.507812 Z M 287.773438 365.792969 L 28.996094 365.792969 L 28.996094 353.066406 L 287.773438 353.066406 Z M 287.773438 365.792969 " fill-opacity="1" fill-rule="nonzero"/></g><path fill="#3a322b" d="M 97.441406 285.925781 L 71.113281 285.925781 C 69.859375 285.925781 68.839844 286.945312 68.839844 288.207031 L 68.839844 314.578125 C 68.839844 315.835938 69.859375 316.855469 71.113281 316.855469 L 97.441406 316.855469 C 98.695312 316.855469 99.714844 315.835938 99.714844 314.578125 L 99.714844 288.207031 C 99.714844 286.945312 98.695312 285.925781 97.441406 285.925781 Z M 95.164062 312.296875 L 73.390625 312.296875 L 73.390625 290.484375 L 95.164062 290.484375 Z M 95.164062 312.296875 " fill-opacity="1" fill-rule="nonzero"/><path fill="#3a322b" d="M 219.332031 316.855469 L 245.65625 316.855469 C 246.914062 316.855469 247.933594 315.835938 247.933594 314.578125 L 247.933594 288.207031 C 247.933594 286.945312 246.914062 285.925781 245.65625 285.925781 L 219.332031 285.925781 C 218.074219 285.925781 217.054688 286.945312 217.054688 288.207031 L 217.054688 314.578125 C 217.054688 315.839844 218.074219 316.855469 219.332031 316.855469 Z M 221.605469 290.484375 L 243.382812 290.484375 L 243.382812 312.296875 L 221.605469 312.296875 Z M 221.605469 290.484375 " fill-opacity="1" fill-rule="nonzero"/><g clip-path="url(#7696517a48)"><g clip-path="url(#7ca67ec648)"><g clip-path="url(#284b956834)"><g clip-path="url(#3900cf13b0)"><path fill="#107fff" d="M 314.019531 125.085938 C 316.664062 125.660156 320.140625 127.675781 321.671875 128.933594 C 321.722656 126.949219 322.445312 122.992188 323.726562 120.609375 C 324.660156 118.875 326.585938 116.996094 327.808594 119.644531 C 328.046875 120.164062 329.546875 124.207031 329.65625 124.925781 C 330.054688 127.402344 328.082031 128.996094 325.929688 129.570312 C 329.683594 128.558594 331.480469 130.125 330.476562 132.976562 C 328.566406 138.382812 324.832031 134.433594 323.867188 133.425781 C 323.75 133.308594 323.679688 133.230469 323.644531 133.210938 C 323.648438 133.246094 323.660156 133.351562 323.675781 133.515625 C 323.8125 134.902344 324.382812 140.3125 319.039062 138.25 C 316.21875 137.160156 316.195312 134.777344 319.402344 132.582031 C 317.566406 133.839844 315.074219 134.308594 313.441406 132.402344 C 312.976562 131.847656 310.875 128.082031 310.632812 127.558594 C 309.414062 124.914062 312.09375 124.667969 314.019531 125.085938 Z M 314.019531 125.085938 " fill-opacity="1" fill-rule="evenodd"/></g></g></g></g><g clip-path="url(#f4a7dc809c)"><g clip-path="url(#b9d6fd5c68)"><g clip-path="url(#192a44409f)"><g clip-path="url(#35f3e01768)"><path fill="#107fff" d="M 206.445312 38.0625 C 207.925781 40.324219 208.992188 44.203125 209.203125 46.175781 C 210.628906 44.792969 213.921875 42.476562 216.503906 41.675781 C 218.386719 41.09375 221.074219 41.105469 220.089844 43.847656 C 219.894531 44.390625 218.128906 48.324219 217.707031 48.910156 C 216.253906 50.957031 213.730469 50.707031 211.792969 49.613281 C 215.179688 51.523438 215.363281 53.894531 212.648438 55.226562 C 207.492188 57.742188 207.597656 52.308594 207.617188 50.914062 C 207.617188 50.75 207.621094 50.644531 207.609375 50.605469 C 207.589844 50.632812 207.523438 50.714844 207.417969 50.84375 C 206.546875 51.929688 203.15625 56.183594 200.792969 50.96875 C 199.546875 48.214844 201.199219 46.5 205.027344 47.179688 C 202.835938 46.792969 200.730469 45.378906 200.902344 42.875 C 200.960938 42.152344 202.101562 37.996094 202.292969 37.453125 C 203.28125 34.710938 205.363281 36.414062 206.445312 38.0625 Z M 206.445312 38.0625 " fill-opacity="1" fill-rule="evenodd"/></g></g></g></g><g clip-path="url(#020077c92c)"><g clip-path="url(#3964c65b53)"><g clip-path="url(#38f6dd6d9e)"><g clip-path="url(#744f162b19)"><path fill="#107fff" d="M 273.605469 69 C 275.886719 70.453125 278.449219 73.554688 279.449219 75.265625 C 280.183594 73.417969 282.238281 69.957031 284.261719 68.167969 C 285.738281 66.863281 288.199219 65.769531 288.425781 68.675781 C 288.46875 69.25 288.472656 73.5625 288.328125 74.273438 C 287.84375 76.730469 285.441406 77.542969 283.222656 77.335938 C 287.097656 77.691406 288.238281 79.777344 286.308594 82.109375 C 282.640625 86.515625 280.503906 81.515625 279.949219 80.238281 C 279.882812 80.085938 279.84375 79.992188 279.816406 79.960938 C 279.808594 79.992188 279.785156 80.09375 279.742188 80.253906 C 279.390625 81.605469 278.046875 86.875 273.75 83.089844 C 271.484375 81.085938 272.285156 78.847656 276.054688 77.898438 C 273.898438 78.445312 271.398438 78.015625 270.527344 75.664062 C 270.285156 74.980469 269.617188 70.722656 269.574219 70.148438 C 269.347656 67.242188 271.945312 67.941406 273.605469 69 Z M 273.605469 69 " fill-opacity="1" fill-rule="evenodd"/></g></g></g></g><g clip-path="url(#986d0b61e2)"><g clip-path="url(#6f74ddae0d)"><g clip-path="url(#7d76409be5)"><g clip-path="url(#afed77ab09)"><path fill="#107fff" d="M 341.929688 64.789062 C 343.285156 67.128906 344.136719 71.0625 344.238281 73.039062 C 345.738281 71.738281 349.152344 69.609375 351.773438 68.953125 C 353.6875 68.472656 356.371094 68.636719 355.238281 71.316406 C 355.011719 71.847656 353.03125 75.679688 352.578125 76.242188 C 351.011719 78.203125 348.507812 77.816406 346.632812 76.617188 C 349.910156 78.710938 349.960938 81.089844 347.175781 82.269531 C 341.890625 84.496094 342.296875 79.074219 342.390625 77.683594 C 342.402344 77.519531 342.410156 77.414062 342.402344 77.375 C 342.378906 77.402344 342.308594 77.480469 342.199219 77.601562 C 341.265625 78.640625 337.648438 82.703125 335.578125 77.363281 C 334.484375 74.542969 336.226562 72.925781 340.011719 73.816406 C 337.84375 73.308594 335.820312 71.777344 336.128906 69.285156 C 336.226562 68.570312 337.597656 64.484375 337.820312 63.953125 C 338.957031 61.269531 340.941406 63.082031 341.929688 64.789062 Z M 341.929688 64.789062 " fill-opacity="1" fill-rule="evenodd"/></g></g></g></g><g clip-path="url(#eaa3922c08)"><g clip-path="url(#cc00a71f67)"><g clip-path="url(#fefa7ce076)"><g clip-path="url(#25c56b67f6)"><path fill="#107fff" d="M 256.253906 16.113281 C 258.957031 16 262.832031 17.078125 264.628906 17.910156 C 264.175781 15.976562 263.882812 11.964844 264.519531 9.335938 C 264.984375 7.421875 266.378906 5.117188 268.222656 7.371094 C 268.589844 7.816406 271.058594 11.351562 271.347656 12.019531 C 272.355469 14.316406 270.84375 16.351562 268.910156 17.453125 C 272.289062 15.527344 274.417969 16.589844 274.167969 19.601562 C 273.679688 25.316406 269.070312 22.433594 267.882812 21.703125 C 267.742188 21.617188 267.652344 21.5625 267.613281 21.550781 C 267.628906 21.582031 267.664062 21.683594 267.71875 21.835938 C 268.203125 23.144531 270.117188 28.238281 264.425781 27.585938 C 261.421875 27.242188 260.800781 24.945312 263.351562 22.011719 C 261.894531 23.691406 259.597656 24.769531 257.535156 23.339844 C 256.949219 22.917969 253.964844 19.804688 253.601562 19.359375 C 251.753906 17.105469 254.285156 16.191406 256.253906 16.113281 Z M 256.253906 16.113281 " fill-opacity="1" fill-rule="evenodd"/></g></g></g></g><g clip-path="url(#3e49efd396)"><g clip-path="url(#47a4a80327)"><g clip-path="url(#075d187a4e)"><g clip-path="url(#3ccc280671)"><path fill="#107fff" d="M 315.140625 7.273438 C 317.164062 9.066406 319.214844 12.527344 319.9375 14.371094 C 320.949219 12.664062 323.515625 9.566406 325.796875 8.113281 C 327.457031 7.054688 330.058594 6.359375 329.828125 9.261719 C 329.78125 9.835938 329.113281 14.097656 328.859375 14.777344 C 327.996094 17.132812 325.496094 17.554688 323.339844 17.007812 C 327.109375 17.960938 327.910156 20.203125 325.640625 22.203125 C 321.332031 25.984375 320.003906 20.710938 319.652344 19.363281 C 319.609375 19.203125 319.585938 19.101562 319.566406 19.066406 C 319.550781 19.097656 319.511719 19.195312 319.445312 19.347656 C 318.886719 20.625 316.738281 25.621094 313.085938 21.210938 C 311.15625 18.882812 312.300781 16.792969 316.171875 16.441406 C 313.957031 16.644531 311.554688 15.835938 311.058594 13.375 C 310.925781 12.664062 310.933594 8.351562 310.976562 7.777344 C 311.207031 4.871094 313.664062 5.964844 315.140625 7.273438 Z M 315.140625 7.273438 " fill-opacity="1" fill-rule="evenodd"/></g></g></g></g></svg>